<svg xmlns="http://www.w3.org/2000/svg" xmlns:xlink="http://www.w3.org/1999/xlink" width="263" zoomAndPan="magnify" viewBox="0 0 197.25 197.249996" height="263" preserveAspectRatio="xMidYMid meet" version="1.0"><defs><clipPath id="180bdf45d0"><path d="M 96.082031 100.683594 L 103.214844 100.683594 L 103.214844 107.816406 L 96.082031 107.816406 Z M 96.082031 100.683594 " clip-rule="nonzero"/></clipPath><clipPath id="8cde5face8"><path d="M 0 0 L 195.753906 0 L 195.753906 195.753906 L 0 195.753906 Z M 0 0 " clip-rule="nonzero"/></clipPath></defs><g clip-path="url(#180bdf45d0)"><path fill="#e48718" d="M 96.082031 100.683594 L 103.214844 100.683594 L 103.214844 107.816406 L 96.082031 107.816406 Z M 96.082031 100.683594 " fill-opacity="1" fill-rule="nonzero"/></g><g clip-path="url(#8cde5face8)"><path fill="#b75bc6" d="M 130.710938 0.0429688 L 144.207031 5.632812 L 111.523438 84.546875 L 190.4375 51.855469 L 196.027344 65.359375 L 117.113281 98.042969 L 196.027344 130.726562 L 190.4375 144.230469 L 111.523438 111.539062 L 144.207031 190.453125 L 130.710938 196.042969 L 98.027344 117.128906 L 65.335938 196.042969 L 51.839844 190.453125 L 84.53125 111.539062 L 5.609375 144.230469 L 0.0273438 130.726562 L 78.941406 98.042969 L 0.0273438 65.359375 L 5.609375 51.855469 L 84.53125 84.546875 L 51.839844 5.632812 L 65.335938 0.0429688 L 98.027344 78.957031 Z M 130.710938 0.0429688 " fill-opacity="1" fill-rule="evenodd"/></g></svg>