<svg xmlns="http://www.w3.org/2000/svg" xmlns:xlink="http://www.w3.org/1999/xlink" width="264" zoomAndPan="magnify" viewBox="0 0 198 194.249992" height="259" preserveAspectRatio="xMidYMid meet" version="1.0"><defs><clipPath id="0ec847e6e0"><path d="M 99.0625 102.335938 L 103.414062 102.335938 L 103.414062 106.070312 L 99.0625 106.070312 Z M 99.0625 102.335938 " clip-rule="nonzero"/></clipPath></defs><g clip-path="url(#0ec847e6e0)"><path fill="#e48718" d="M 99.0625 102.335938 L 103.414062 102.335938 L 103.414062 106.070312 L 99.0625 106.070312 Z M 99.0625 102.335938 " fill-opacity="1" fill-rule="nonzero"/></g><path fill="#ffe265" d="M 106.914062 5.585938 L 120.03125 23.886719 C 122.445312 27.257812 126.683594 28.800781 130.699219 27.769531 L 152.511719 22.183594 C 159.183594 20.476562 165.558594 25.824219 165.035156 32.691406 L 163.320312 55.144531 C 163.003906 59.277344 165.257812 63.179688 168.996094 64.976562 L 189.300781 74.714844 C 195.507812 77.695312 196.953125 85.890625 192.136719 90.8125 L 176.390625 106.910156 C 173.492188 109.875 172.710938 114.316406 174.421875 118.09375 L 183.710938 138.605469 C 186.550781 144.875 182.390625 152.085938 175.539062 152.761719 L 153.128906 154.96875 C 149.003906 155.378906 145.550781 158.277344 144.433594 162.269531 L 138.363281 183.953125 C 136.507812 190.585938 128.6875 193.429688 123.003906 189.542969 L 104.417969 176.832031 C 100.992188 174.492188 96.484375 174.492188 93.0625 176.832031 L 74.476562 189.542969 C 68.792969 193.429688 60.972656 190.585938 59.117188 183.953125 L 53.046875 162.269531 C 51.929688 158.277344 48.476562 155.378906 44.351562 154.96875 L 21.941406 152.761719 C 15.089844 152.085938 10.929688 144.875 13.769531 138.605469 L 23.058594 118.09375 C 24.769531 114.316406 23.988281 109.875 21.085938 106.910156 L 5.34375 90.8125 C 0.527344 85.890625 1.972656 77.695312 8.179688 74.714844 L 28.480469 64.976562 C 32.21875 63.179688 34.472656 59.277344 34.160156 55.144531 L 32.445312 32.691406 C 31.921875 25.824219 38.296875 20.476562 44.964844 22.183594 L 66.78125 27.769531 C 70.796875 28.800781 75.03125 27.257812 77.449219 23.886719 L 90.566406 5.585938 C 94.578125 -0.0117188 102.902344 -0.0117188 106.914062 5.585938 Z M 106.914062 5.585938 " fill-opacity="1" fill-rule="nonzero"/></svg>