<svg xmlns="http://www.w3.org/2000/svg" xmlns:xlink="http://www.w3.org/1999/xlink" width="751" zoomAndPan="magnify" viewBox="0 0 563.25 52.499999" height="70" preserveAspectRatio="xMidYMid meet" version="1.0"><defs><clipPath id="a964f0b631"><path d="M 528.78125 18.691406 L 535.871094 18.691406 L 535.871094 25.78125 L 528.78125 25.78125 Z M 528.78125 18.691406 " clip-rule="nonzero"/></clipPath><clipPath id="b23d609f19"><path d="M 2.285156 0 L 559.480469 0 L 559.480469 51.261719 L 2.285156 51.261719 Z M 2.285156 0 " clip-rule="nonzero"/></clipPath></defs><g clip-path="url(#a964f0b631)"><path fill="#e48718" d="M 528.78125 18.691406 L 535.871094 18.691406 L 535.871094 25.78125 L 528.78125 25.78125 Z M 528.78125 18.691406 " fill-opacity="1" fill-rule="nonzero"/></g><g clip-path="url(#b23d609f19)"><path fill="#d12a74" d="M 503.957031 51.527344 C 484.902344 51.527344 474.570312 43.03125 467.015625 36.820312 C 460.808594 31.699219 457.03125 28.636719 448.214844 28.636719 C 439.402344 28.636719 435.65625 31.726562 429.417969 36.820312 C 421.863281 43.03125 411.53125 51.527344 392.476562 51.527344 C 373.417969 51.527344 363.089844 43.03125 355.535156 36.820312 C 349.324219 31.699219 345.546875 28.636719 336.734375 28.636719 C 327.921875 28.636719 324.171875 31.726562 317.933594 36.820312 C 310.378906 43.03125 300.050781 51.527344 280.992188 51.527344 C 261.933594 51.527344 251.605469 43.03125 244.050781 36.820312 C 237.839844 31.699219 234.0625 28.636719 225.25 28.636719 C 216.4375 28.636719 212.6875 31.726562 206.453125 36.820312 C 198.898438 43.03125 188.566406 51.527344 169.507812 51.527344 C 150.453125 51.527344 140.121094 43.03125 132.566406 36.820312 C 126.359375 31.699219 122.582031 28.636719 113.769531 28.636719 C 104.953125 28.636719 101.207031 31.726562 94.96875 36.820312 C 87.414062 43.03125 77.085938 51.527344 58.027344 51.527344 C 38.96875 51.527344 28.640625 43.03125 21.085938 36.820312 C 14.847656 31.726562 11.097656 28.636719 2.285156 28.636719 L 2.285156 0.0234375 C 21.34375 0.0234375 31.671875 8.519531 39.226562 14.730469 C 45.4375 19.851562 49.214844 22.914062 58.027344 22.914062 C 66.839844 22.914062 70.589844 19.824219 76.828125 14.730469 C 84.382812 8.519531 94.710938 0.0234375 113.769531 0.0234375 C 132.824219 0.0234375 143.15625 8.519531 150.710938 14.730469 C 156.917969 19.851562 160.695312 22.914062 169.507812 22.914062 C 178.324219 22.914062 182.070312 19.824219 188.308594 14.730469 C 195.863281 8.519531 206.195312 0.0234375 225.25 0.0234375 C 244.308594 0.0234375 254.636719 8.519531 262.191406 14.730469 C 268.402344 19.851562 272.179688 22.914062 280.992188 22.914062 C 289.804688 22.914062 293.554688 19.824219 299.792969 14.730469 C 307.347656 8.519531 317.675781 0.0234375 336.734375 0.0234375 C 355.792969 0.0234375 366.121094 8.519531 373.675781 14.730469 C 379.882812 19.851562 383.660156 22.914062 392.476562 22.914062 C 401.289062 22.914062 405.035156 19.824219 411.273438 14.730469 C 418.828125 8.519531 429.160156 0.0234375 448.214844 0.0234375 C 467.273438 0.0234375 477.605469 8.519531 485.15625 14.730469 C 491.367188 19.851562 495.144531 22.914062 503.957031 22.914062 C 512.769531 22.914062 516.519531 19.824219 522.757812 14.730469 C 530.3125 8.519531 540.640625 0.0234375 559.699219 0.0234375 L 559.699219 28.636719 C 550.886719 28.636719 547.136719 31.726562 540.898438 36.820312 C 533.34375 43.03125 523.015625 51.527344 503.957031 51.527344 Z M 503.957031 51.527344 " fill-opacity="1" fill-rule="nonzero"/></g></svg>